<?xml version="1.0" standalone="no"?>
<!DOCTYPE svg PUBLIC "-//W3C//DTD SVG 20010904//EN"
 "http://www.w3.org/TR/2001/REC-SVG-20010904/DTD/svg10.dtd">
<svg version="1.0" xmlns="http://www.w3.org/2000/svg"
 width="400.000000pt" height="400.000000pt" viewBox="0 0 400.000000 400.000000"
 preserveAspectRatio="xMidYMid meet">
<metadata>
Created by potrace 1.14, written by Peter Selinger 2001-2017
</metadata>
<g transform="translate(0.000000,400.000000) scale(0.100000,-0.100000)"
fill="#000000" stroke="none">
<path d="M0 1999 l0 -1999 855 0 c866 0 861 0 856 33 -2 12 13 8 39 -10 21
-15 54 -18 215 -21 188 -3 208 -1 286 32 11 5 18 1 22 -13 5 -21 6 -21 866
-21 l861 0 0 2000 0 2001 -2000 -2 -2000 -1 0 -1999z m2221 1335 c-7 -31 -9
-34 -10 -12 -1 27 9 62 15 55 3 -2 0 -22 -5 -43z m-454 -59 c-1 -37 3 -69 9
-73 5 -4 17 -50 26 -102 9 -52 21 -116 28 -141 8 -34 8 -53 -1 -75 l-11 -29
-13 35 c-10 27 -14 30 -14 13 -1 -12 4 -34 9 -48 7 -17 7 -32 0 -43 -8 -15 -9
-14 -10 4 0 11 -6 34 -14 50 -8 16 -17 63 -20 104 -11 123 -15 367 -6 340 l8
-25 1 28 c1 15 3 27 5 27 2 0 3 -29 3 -65z m470 -140 c-3 -60 -10 -146 -17
-190 -7 -44 -12 -95 -11 -112 1 -26 -3 -33 -18 -33 -10 0 -26 10 -35 23 -17
22 -17 22 -12 -10 3 -19 1 -33 -4 -33 -6 0 -10 -8 -10 -17 0 -15 -2 -16 -10
-3 -19 30 -31 -3 -22 -61 l8 -54 8 48 c10 67 26 58 27 -15 0 -51 2 -58 10 -39
5 13 12 22 14 19 3 -3 1 -16 -4 -30 -5 -14 -5 -31 0 -40 6 -11 1 -29 -16 -60
-14 -23 -25 -53 -25 -66 0 -23 2 -23 56 -16 43 5 55 4 50 -5 -4 -7 -2 -18 4
-26 6 -8 9 -19 5 -24 -8 -13 -100 -41 -135 -41 -29 0 -50 31 -50 76 0 16 -4
23 -11 18 -7 -4 -9 -22 -6 -45 4 -29 2 -39 -9 -39 -8 0 -14 11 -15 28 0 24 -1
25 -9 7 -7 -17 -9 -16 -11 10 l-2 30 -6 -34 c-9 -51 -33 -54 -25 -3 3 22 2 42
-4 46 -5 3 -12 -12 -15 -35 -6 -49 -5 -47 -50 -54 -36 -6 -88 4 -134 27 l-23
11 26 26 c20 20 34 25 64 22 37 -2 38 -1 36 27 -1 17 -14 46 -30 66 -33 44
-42 78 -19 69 13 -5 15 -1 9 21 -4 15 -3 32 1 39 5 8 9 3 13 -13 5 -19 9 -8
15 40 l9 65 4 -52 c3 -56 18 -72 24 -25 l4 27 16 -36 c16 -38 48 -69 35 -35
-4 10 -7 29 -7 43 0 16 -7 27 -20 30 -12 3 -20 14 -20 26 0 19 3 17 31 -11 50
-51 106 -40 157 32 31 44 49 86 35 86 -4 0 -21 -19 -38 -41 -21 -28 -31 -36
-33 -25 -2 9 -8 16 -13 16 -14 0 -11 27 6 60 13 26 19 29 48 23 17 -3 37 -9
42 -14 7 -5 20 42 39 139 15 81 38 188 49 237 20 81 22 86 25 50 2 -22 1 -89
-1 -150z m-597 165 c0 -5 -5 -10 -11 -10 -5 0 -7 5 -4 10 3 6 8 10 11 10 2 0
4 -4 4 -10z m-14 -46 c-3 -9 -6 -22 -6 -30 0 -8 -4 -14 -10 -14 -11 0 -14 43
-3 53 12 13 25 7 19 -9z m151 -6 c-3 -8 -6 -5 -6 6 -1 11 2 17 5 13 3 -3 4
-12 1 -19z m597 6 c9 -23 7 -44 -3 -44 -5 0 -11 14 -13 30 -5 32 6 41 16 14z
m502 -159 c302 -297 424 -655 374 -1096 -10 -85 -69 -280 -111 -360 -11 -22
-17 -39 -15 -39 10 0 -31 -85 -67 -142 -20 -31 -52 -66 -72 -78 -19 -12 -35
-23 -35 -25 0 -3 12 -11 28 -19 l27 -15 -35 -2 c-19 -1 -39 -1 -44 0 -5 1 13
-18 39 -42 42 -37 47 -46 37 -63 -8 -14 -12 -15 -12 -4 0 13 -2 13 -11 0 -9
-13 -10 -12 -5 2 8 26 -23 72 -65 96 -53 31 -55 28 -9 -14 43 -39 51 -72 24
-98 -22 -22 -31 -20 -11 2 24 26 21 38 -14 63 -24 17 -33 19 -39 9 -4 -7 -13
-9 -19 -6 -6 4 -9 12 -5 17 3 5 0 8 -8 7 -7 -2 -12 3 -10 10 1 6 -1 11 -5 10
-5 -2 -9 0 -10 5 -7 20 -1 27 25 28 17 1 21 3 9 6 -15 4 -38 40 -41 65 -1 3
-4 10 -8 14 -5 4 -8 16 -8 26 0 18 1 18 24 1 13 -10 22 -20 20 -22 -2 -2 -10
2 -19 9 -8 7 -15 10 -15 6 0 -13 66 -46 91 -46 14 0 34 10 45 22 12 13 13 18
4 13 -12 -7 -12 -5 1 11 9 10 24 33 33 51 8 17 22 37 29 45 7 7 26 35 42 61
15 27 34 51 41 54 7 3 18 21 25 41 7 21 18 46 24 57 21 33 52 134 71 230 35
177 18 457 -37 610 -56 156 -94 230 -178 345 -69 95 -223 249 -263 263 -9 3
-22 15 -28 27 -18 34 105 -55 186 -135z m-1590 111 c-33 -19 -158 -139 -209
-198 -79 -94 -177 -247 -177 -277 0 -6 -11 -34 -24 -64 -97 -210 -113 -529
-41 -787 28 -99 90 -240 105 -240 6 0 9 -4 6 -9 -4 -5 -3 -11 2 -13 17 -7 82
-110 76 -120 -4 -6 -3 -8 3 -5 10 7 28 -20 25 -35 -1 -5 7 -8 17 -8 11 0 22
-6 24 -12 4 -9 6 -8 6 3 1 8 12 26 26 39 l25 24 -11 -35 c-6 -19 -20 -42 -31
-51 -11 -10 -15 -18 -9 -18 6 0 20 9 31 20 11 11 25 19 32 18 7 -2 12 2 13 9
0 6 3 15 7 19 4 4 7 -10 6 -31 -1 -20 -7 -39 -15 -42 -17 -6 -17 -33 0 -34 6
-1 -6 -5 -28 -9 l-40 -7 37 -2 c31 -1 35 -4 31 -21 -3 -11 -9 -17 -14 -14 -5
3 -9 -4 -9 -15 0 -24 -35 -37 -56 -20 -11 9 -18 8 -34 -6 -10 -9 -21 -24 -23
-34 -2 -9 -3 -2 -1 14 3 17 17 41 32 55 15 14 23 22 17 18 -5 -3 -32 -4 -59
-1 -48 6 -48 6 -26 23 l22 17 -30 34 c-32 37 -82 129 -88 165 -2 12 -20 53
-39 91 -136 269 -161 634 -63 928 77 232 203 419 383 571 69 58 108 84 115 77
3 -3 -4 -10 -14 -17z m324 -30 c0 -14 -4 -28 -10 -31 -6 -4 -10 7 -10 24 0 17
5 31 10 31 6 0 10 -11 10 -24z m782 -6 c5 -32 -6 -41 -16 -14 -9 23 -7 44 3
44 5 0 11 -13 13 -30z m5 -77 c-3 -10 -5 -4 -5 12 0 17 2 24 5 18 2 -7 2 -21
0 -30z m-764 -37 c-10 -13 -20 -22 -22 -20 -4 4 29 44 36 44 2 0 -4 -11 -14
-24z m-149 -136 c-10 -4 -21 -6 -24 -3 -8 7 24 22 34 16 5 -4 1 -10 -10 -13z
m-27 -40 c-3 -21 -17 -40 -17 -22 0 13 11 42 16 42 2 0 3 -9 1 -20z m548 8
c29 -13 31 -25 8 -57 -13 -19 -14 -28 -5 -42 17 -27 14 -37 -4 -14 -11 14 -18
16 -21 8 -9 -24 -32 -15 -25 10 5 20 4 20 -10 7 -8 -9 -17 -21 -19 -28 -5 -14
-61 53 -63 76 -1 19 53 39 63 23 5 -8 13 -5 26 9 21 24 18 23 50 8z m535 -9
c0 -6 -4 -7 -10 -4 -5 3 -10 11 -10 16 0 6 5 7 10 4 6 -3 10 -11 10 -16z
m-672 -90 c7 -12 11 -24 8 -27 -6 -6 -35 27 -36 41 0 14 15 7 28 -14z m-338
-89 c0 -5 -4 -10 -10 -10 -5 0 -10 5 -10 10 0 6 5 10 10 10 6 0 10 -4 10 -10z
m92 -159 c-3 -14 -9 -32 -15 -39 -7 -9 -6 -11 7 -6 14 5 16 2 11 -17 -3 -13
-12 -53 -20 -89 -8 -36 -15 -96 -15 -133 0 -65 2 -71 33 -102 34 -34 77 -104
77 -125 0 -7 -9 -2 -20 11 -23 29 -26 18 -4 -16 18 -28 13 -33 -10 -9 -15 14
-16 14 -16 -5 0 -11 7 -71 16 -132 17 -128 13 -157 -17 -120 l-19 23 -8 -23
c-15 -40 -24 58 -21 230 2 127 -1 163 -14 193 -11 25 -17 67 -18 125 -1 48 -4
99 -8 113 -5 17 -2 37 11 62 10 21 18 48 18 62 0 13 3 32 6 40 6 15 7 15 19 0
6 -9 10 -28 7 -43z m771 -33 c22 -78 10 -317 -17 -347 -16 -17 -17 -30 -11
-86 8 -78 -5 -372 -16 -335 -3 14 -4 35 -2 48 4 19 1 22 -22 22 l-28 0 6 73
c4 39 9 87 13 106 7 33 6 33 -17 21 -20 -11 -22 -11 -13 1 6 8 14 23 18 34 5
14 -1 11 -19 -10 -16 -18 -22 -22 -17 -10 37 81 46 95 56 95 15 0 54 76 61
122 3 22 -2 66 -14 113 -28 105 -25 202 6 205 1 0 8 -24 16 -52z m-293 -257
c0 -5 -7 -12 -16 -15 -14 -5 -15 -4 -4 9 14 17 20 19 20 6z m-124 -141 c10
-24 11 -24 18 -5 3 11 17 25 31 32 28 13 29 12 26 -57 l-1 -45 14 33 c25 54
25 36 0 -35 -13 -38 -23 -76 -24 -85 0 -9 -5 -20 -10 -23 -7 -4 -9 9 -5 37 4
34 3 38 -4 21 -6 -13 -15 -23 -21 -23 -5 0 -11 10 -11 23 -1 18 -2 18 -6 4 -3
-10 -11 -16 -18 -13 -8 3 -16 0 -18 -7 -2 -7 -9 5 -16 26 -10 28 -10 46 -2 69
6 17 11 46 11 65 0 28 2 32 13 21 7 -7 17 -24 23 -38z m138 25 c3 -8 1 -15 -4
-15 -6 0 -10 7 -10 15 0 8 2 15 4 15 2 0 6 -7 10 -15z m-634 -132 c-1 -5 -7
-37 -15 -73 -19 -88 -19 -184 0 -204 19 -18 19 -30 1 -45 -12 -10 -15 -7 -19
21 l-4 33 -1 -37 c-3 -58 -23 -140 -38 -156 -8 -7 -14 -22 -14 -33 0 -10 -4
-19 -10 -19 -5 0 -10 -8 -10 -17 0 -16 2 -16 11 -3 9 12 10 12 5 -3 -3 -10 -6
-28 -6 -38 0 -16 -5 -19 -22 -14 -21 5 -21 5 2 -9 14 -9 20 -15 13 -16 -6 0
-9 -8 -6 -19 4 -17 0 -18 -40 -14 -27 3 -47 1 -51 -6 -17 -28 -28 -9 -24 42 6
68 40 136 104 204 47 49 53 61 62 121 18 108 30 194 37 245 3 26 10 47 16 47
5 0 9 -3 9 -7z m1066 -84 l4 -64 -15 55 c-18 68 -19 98 -4 83 6 -6 13 -39 15
-74z m-275 48 c-10 -9 -11 -8 -5 6 3 10 9 15 12 12 3 -3 0 -11 -7 -18z m-542
-37 c0 -9 -6 -4 -14 10 -19 33 -19 49 0 24 8 -10 14 -26 14 -34z m519 -11 c-6
-16 -12 -28 -14 -26 -5 5 13 57 20 57 3 0 0 -14 -6 -31z m-718 -69 l-8 -35 -1
31 c-1 17 2 34 6 37 11 12 12 3 3 -33z m1106 -276 c23 -26 51 -70 61 -98 13
-36 24 -51 37 -51 21 0 46 -31 46 -57 0 -23 -26 -23 -39 -1 -14 25 -20 14 -26
-46 -3 -30 -10 -61 -15 -70 -8 -12 -9 -9 -4 12 6 26 -8 38 -21 17 -11 -17 -22
-11 -35 19 -16 39 -5 55 32 47 18 -3 27 -2 23 4 -3 6 -22 10 -41 10 -30 0 -34
3 -34 25 0 24 13 34 23 18 2 -5 2 -2 1 4 -2 7 5 17 14 22 14 9 11 10 -14 11
-31 0 -32 2 -39 55 -3 30 -10 53 -15 50 -11 -7 -19 17 -26 80 -6 45 -9 52 -25
48 -15 -4 -19 0 -19 20 0 13 7 30 15 37 10 8 15 32 16 69 1 50 3 45 22 -61 19
-113 21 -119 63 -164z m-1090 151 c14 9 28 14 31 12 2 -3 -9 -13 -25 -23 -27
-15 -49 -61 -36 -73 2 -3 19 9 37 25 l32 29 -31 -35 c-44 -49 -49 -62 -70
-172 l-19 -96 -12 41 c-7 23 -8 44 -4 47 5 3 11 19 14 35 3 17 16 91 29 165
21 121 23 130 26 82 l3 -54 25 17z m959 -50 c21 -135 37 -198 47 -183 5 8 8 3
8 -14 0 -15 -4 -29 -9 -32 -5 -3 -7 -54 -4 -112 3 -74 1 -104 -6 -100 -6 4
-10 30 -10 59 3 124 -30 250 -80 309 -34 39 -28 44 12 10 23 -21 31 -10 23 33
-6 28 -15 39 -46 55 -21 11 -41 24 -45 29 -3 6 14 -1 37 -14 24 -14 45 -25 48
-25 3 0 4 24 3 52 -3 73 3 51 22 -67z m-715 1 c0 -6 -3 -6 -9 0 -6 5 -13 29
-16 54 l-5 45 15 -45 c8 -25 15 -49 15 -54z m415 34 c-4 -23 -9 -39 -12 -36
-3 2 -2 23 2 46 4 23 9 39 12 36 3 -2 2 -23 -2 -46z m-625 -4 c0 -2 -7 -7 -16
-10 -8 -3 -12 -2 -9 4 6 10 25 14 25 6z m1284 -258 c19 -27 23 -38 13 -38 -19
0 -36 21 -47 61 -10 35 -8 34 34 -23z m-1651 -45 c-6 -16 -5 -17 12 -3 17 14
18 13 12 -3 -4 -10 -7 -23 -7 -28 0 -6 -4 -7 -10 -4 -5 3 -10 1 -10 -4 0 -6
-4 -11 -10 -11 -13 0 -13 26 0 51 13 24 22 25 13 2z m125 -59 c26 -7 28 -19 5
-42 -12 -12 -18 -13 -21 -4 -2 6 -17 12 -34 12 -27 0 -30 -3 -26 -25 3 -13 1
-22 -3 -19 -5 3 -9 18 -9 34 0 22 6 31 28 38 34 13 33 13 60 6z m-108 -18 c0
-8 -7 -16 -15 -20 -15 -5 -21 14 -8 27 11 12 23 8 23 -7z m1532 -1 c0 -5 -5
-11 -11 -13 -6 -2 -11 4 -11 13 0 9 5 15 11 13 6 -2 11 -8 11 -13z m-1736 -40
c-15 -14 -32 -39 -38 -55 -10 -30 -28 -41 -28 -18 0 19 43 76 65 87 30 15 30
13 1 -14z m-311 -5 c-3 -5 -12 -10 -18 -10 -7 0 -6 4 3 10 19 12 23 12 15 0z
m133 -11 c34 -8 61 -22 73 -37 21 -27 25 -88 8 -112 -9 -12 -10 -11 -6 8 3 12
1 22 -4 22 -5 0 -10 -21 -11 -47 l-1 -48 -6 48 c-8 62 -48 114 -96 123 -43 8
-84 -7 -150 -56 -56 -42 -75 -53 -75 -47 0 3 15 14 33 26 17 11 26 21 19 21
-8 0 -10 5 -6 13 6 9 5 9 -8 0 -8 -7 -17 -10 -20 -8 -3 3 -19 -10 -37 -30 -17
-20 -31 -31 -31 -25 0 6 28 38 62 70 48 46 76 64 123 79 33 10 65 18 70 16 6
-1 34 -8 63 -16z m111 8 c8 -11 7 -13 -7 -12 -9 1 -24 5 -32 8 -8 3 -28 8 -45
10 -18 2 -10 5 21 6 32 0 56 -4 63 -12z m2111 4 c-29 -4 -40 -9 -32 -14 7 -5
9 -14 5 -20 -5 -9 -3 -9 8 -1 30 23 139 46 169 35 16 -5 39 -7 52 -5 21 4 21
4 3 -5 -19 -9 -19 -10 4 -10 37 -1 156 -93 180 -139 7 -13 -10 -1 -37 27 -28
28 -55 51 -61 51 -17 0 -7 -41 14 -56 10 -8 15 -14 11 -14 -5 0 -25 13 -46 30
-44 35 -122 70 -155 70 -44 0 -74 -22 -100 -74 -14 -27 -25 -61 -26 -75 0 -15
-4 -35 -9 -46 -4 -12 -6 6 -3 43 4 46 3 62 -7 62 -9 0 -11 13 -7 50 3 28 2 52
-4 55 -5 4 -6 11 -3 17 5 8 1 9 -11 4 -15 -5 -16 -4 -5 9 8 10 28 14 59 13
l46 -1 -45 -6z m-265 -33 c10 -10 8 -43 -2 -40 -7 1 -12 -4 -10 -10 1 -7 -7
-13 -18 -13 -11 0 -19 6 -17 13 2 10 -2 10 -19 1 -20 -10 -21 -9 -14 7 4 11 7
29 7 40 -1 20 2 21 34 14 20 -5 37 -10 39 -12z m-1865 -2 c-7 -7 -14 -6 -21 1
-9 9 -7 12 9 10 14 -1 18 -5 12 -11z m300 -11 c0 -28 -30 -63 -48 -57 -7 2
-12 10 -12 18 0 8 -6 11 -15 8 -19 -8 -19 1 1 31 11 17 26 25 45 25 24 0 29
-4 29 -25z m1958 -42 c-10 -2 -28 -2 -40 0 -13 2 -5 4 17 4 22 1 32 -1 23 -4z
m-2182 -15 c4 -7 3 -8 -4 -4 -6 4 -22 1 -34 -5 -21 -11 -22 -11 -9 4 16 20 37
22 47 5z m1981 -5 c0 -9 -4 -10 -13 -2 -7 6 -19 7 -25 3 -7 -4 -9 -3 -5 4 9
15 43 11 43 -5z m-2297 -67 c0 -8 -9 -24 -20 -37 -17 -21 -19 -22 -20 -6 0 23
18 57 30 57 6 0 10 -6 10 -14z m2614 -17 c3 -17 3 -35 0 -40 -3 -5 1 -9 8 -9
7 0 24 -10 38 -21 14 -11 18 -18 10 -14 -8 4 -4 -3 10 -16 l25 -22 -25 8 c-14
4 -25 8 -26 9 -1 0 -6 10 -12 21 l-11 20 -1 -20 c-1 -17 -2 -18 -13 -5 -17 21
-46 24 -54 5 -5 -14 -8 -14 -15 -3 -7 9 -8 7 -5 -9 4 -20 2 -21 -14 -12 -21
11 -24 24 -9 34 18 11 10 25 -15 25 -14 0 -25 -6 -25 -12 0 -9 -3 -8 -10 2 -7
11 -2 19 20 33 35 22 37 27 10 20 -27 -7 -26 14 1 22 25 8 68 -19 85 -54 10
-19 12 -20 18 -6 3 9 -1 26 -9 38 -19 27 -19 37 -1 37 7 0 16 -14 20 -31z
m-2669 -6 c-4 -16 -7 -28 -8 -28 -1 0 -22 -14 -47 -31 -25 -18 -49 -33 -55
-35 -5 -2 -9 -10 -9 -16 1 -7 -2 -13 -7 -13 -5 0 -9 3 -9 8 0 4 -12 8 -27 9
-19 1 -22 -1 -12 -8 10 -6 7 -9 -12 -9 -14 0 -33 6 -43 13 -17 13 -16 14 13
26 17 8 31 17 31 22 0 18 49 41 71 34 22 -7 22 -8 4 -21 -10 -8 -14 -14 -9
-14 6 0 16 6 22 12 10 10 8 16 -10 31 -13 11 -16 17 -7 14 8 -3 26 4 40 14 13
10 37 19 53 19 26 0 28 -2 21 -27z m141 12 c18 -14 18 -14 -6 -15 l-25 -1 28
-17 c36 -22 34 -33 -4 -25 -28 5 -30 4 -24 -19 4 -17 1 -29 -12 -39 -16 -13
-17 -13 -4 4 8 9 11 21 7 24 -4 4 -11 1 -16 -7 -6 -8 -10 -10 -10 -4 0 20 -32
25 -50 9 -16 -14 -18 -14 -23 5 -6 22 25 46 45 34 6 -4 9 -3 5 2 -7 12 12 37
38 52 26 15 28 15 51 -3z m448 -21 c3 -9 -7 -5 -24 8 -17 12 -30 23 -30 25 0
8 50 -22 54 -33z m1555 34 c-2 -2 -20 -16 -39 -33 -19 -16 -28 -21 -20 -10 18
25 42 44 54 45 5 0 7 -1 5 -2z m611 -6 c0 -4 14 -13 31 -19 17 -7 28 -16 25
-22 -4 -5 4 -7 16 -4 19 4 20 3 8 -6 -10 -7 -11 -11 -2 -11 6 0 11 -5 10 -12
-2 -7 2 -12 7 -13 6 0 16 -4 23 -8 18 -12 15 3 -5 26 -18 19 -17 19 5 6 12 -8
22 -17 22 -21 0 -3 17 -12 38 -19 l37 -12 -34 -14 c-38 -16 -86 -10 -75 9 5 7
2 9 -9 5 -34 -13 -152 60 -159 98 -5 23 -2 25 28 25 19 0 34 -4 34 -8z m-2920
-21 c0 -5 -7 -14 -15 -21 -12 -10 -15 -10 -15 2 0 8 3 18 7 21 9 10 23 9 23
-2z m364 -33 c-9 -14 -23 2 -17 18 4 12 8 13 14 3 4 -7 5 -17 3 -21z m2303 -4
c-2 -2 -12 -2 -21 2 -13 5 -14 9 -5 21 11 12 14 12 22 -2 5 -9 7 -19 4 -21z
m402 8 c-1 -15 -2 -15 -6 1 -2 9 -9 14 -15 11 -7 -4 -8 -2 -4 5 10 15 26 4 25
-17z m-2619 -24 c0 -6 6 -19 13 -28 6 -9 2 -5 -10 8 -23 23 -32 48 -13 37 6
-3 10 -11 10 -17z m118 -18 c-21 -29 -51 -39 -62 -21 -6 9 20 35 44 44 35 13
40 6 18 -23z m1877 20 c3 -5 12 -7 19 -4 8 3 17 0 22 -7 5 -9 2 -10 -12 -6
-18 7 -18 6 -1 -7 19 -15 22 -26 7 -26 -9 0 -60 47 -60 55 0 9 19 5 25 -5z
m-2285 -29 c0 -11 -9 -21 -22 -25 -32 -8 -47 -6 -23 3 11 5 21 13 21 20 2 19
4 21 14 21 6 0 10 -8 10 -19z m2456 -6 c10 -8 14 -15 8 -15 -5 0 -19 7 -30 15
-10 8 -14 15 -8 15 5 0 19 -7 30 -15z m-2525 -12 c-23 -16 -23 -17 -5 -24 17
-7 17 -8 -3 -8 -13 -1 -23 2 -23 6 0 11 32 43 44 43 6 0 0 -8 -13 -17z m319 8
c-8 -5 -26 -11 -40 -15 -21 -5 -20 -3 5 9 32 15 60 20 35 6z m2564 -33 c-2
-16 1 -28 8 -28 6 0 9 -3 5 -6 -3 -3 -14 -1 -24 5 -10 6 -13 11 -8 11 6 1 1 5
-10 10 -19 8 -19 9 -1 9 15 1 16 4 6 15 -9 12 -8 15 8 13 15 -1 18 -7 16 -29z
m-3064 18 c0 -2 -9 -6 -20 -9 -11 -3 -20 -1 -20 4 0 5 9 9 20 9 11 0 20 -2 20
-4z m3265 -6 c8 -13 -5 -13 -25 0 -13 8 -13 10 2 10 9 0 20 -4 23 -10z m-3163
-42 c-6 -6 -16 -7 -23 -3 -9 6 -7 12 7 22 21 15 34 -1 16 -19z m148 28 c0 -2
-11 -6 -25 -8 -13 -3 -22 -1 -19 3 5 9 44 13 44 5z m2740 0 c0 -11 -19 -15
-25 -6 -3 5 1 10 9 10 9 0 16 -2 16 -4z m142 -14 c-7 -2 -10 -8 -6 -13 3 -5 3
-9 0 -9 -3 0 -10 9 -15 19 -9 17 -8 18 11 13 13 -3 17 -7 10 -10z m-2967 -12
c-3 -5 -14 -10 -23 -10 -15 0 -15 2 -2 10 20 13 33 13 25 0z m333 -4 c-10 -7
-18 -18 -18 -23 0 -7 -22 -10 -55 -8 -31 1 -58 -2 -61 -6 -3 -5 12 -10 33 -10
31 -2 33 -3 10 -6 -39 -6 -58 3 -51 22 4 10 17 16 33 15 55 -4 71 0 65 15 -5
12 2 15 27 15 30 -1 32 -2 17 -14z m2237 4 c3 -5 0 -10 -7 -10 -11 0 -11 -2 0
-8 7 -5 32 -7 56 -5 24 2 46 1 49 -4 3 -4 -25 -8 -62 -9 -61 -1 -68 1 -78 23
-10 21 -9 23 12 23 13 0 27 -4 30 -10z m-2775 -10 c0 -5 -5 -10 -11 -10 -5 0
-7 5 -4 10 3 6 8 10 11 10 2 0 4 -4 4 -10z m3 -27 c7 -6 -51 -43 -88 -56 -19
-6 -19 -6 -2 6 10 7 26 18 35 25 16 11 16 12 0 6 -26 -9 -22 5 5 16 27 11 42
12 50 3z m1195 -18 c6 -14 10 -25 8 -25 -2 0 -11 11 -20 25 -9 14 -13 25 -8
25 5 0 14 -11 20 -25z m890 -1 c-7 -15 -14 -21 -16 -15 -2 7 2 18 8 26 18 22
21 18 8 -11z m1281 16 c8 0 11 -6 7 -16 -3 -8 -2 -12 4 -9 6 3 10 4 10 1 0 -2
3 -12 6 -21 6 -13 -2 -11 -34 9 -23 14 -46 26 -52 26 -6 0 -8 5 -4 11 3 6 16
8 28 5 11 -3 27 -6 35 -6z m-292 -22 c-3 -8 -6 -5 -6 6 -1 11 2 17 5 13 3 -3
4 -12 1 -19z m-219 5 c-10 -2 -28 -2 -40 0 -13 2 -5 4 17 4 22 1 32 -1 23 -4z
m-1623 -44 c11 -17 -1 -21 -15 -4 -8 9 -8 15 -2 15 6 0 14 -5 17 -11z m815 -8
c-5 -11 -15 -23 -21 -27 -6 -3 -3 5 6 20 20 30 30 35 15 7z m-1533 3 c-3 -3
-12 -4 -19 -1 -8 3 -5 6 6 6 11 1 17 -2 13 -5z m2256 -1 c-7 -2 -19 -2 -25 0
-7 3 -2 5 12 5 14 0 19 -2 13 -5z m-2253 -57 c0 -2 -7 -6 -15 -10 -8 -3 -15
-1 -15 4 0 6 7 10 15 10 8 0 15 -2 15 -4z m2210 -6 c0 -5 -4 -10 -10 -10 -5 0
-10 5 -10 10 0 6 5 10 10 10 6 0 10 -4 10 -10z m40 0 c0 -5 -2 -10 -4 -10 -3
0 -8 5 -11 10 -3 6 -1 10 4 10 6 0 11 -4 11 -10z m57 -16 c-3 -3 -12 -4 -19
-1 -8 3 -5 6 6 6 11 1 17 -2 13 -5z m-2809 -18 c-2 -1 -12 -8 -22 -16 -18 -14
-18 -14 -6 7 8 12 18 19 23 16 4 -3 7 -6 5 -7z m3295 -7 c4 -16 3 -18 -9 -8
-16 13 -19 29 -5 29 5 0 11 -9 14 -21z m-3336 -76 c1 -24 0 -25 -6 -8 -7 17
-6 35 2 35 2 0 3 -12 4 -27z m3363 -9 c0 -8 -4 -12 -10 -9 -5 3 -10 10 -10 16
0 5 5 9 10 9 6 0 10 -7 10 -16z m-1340 -9 c0 -6 -83 -46 -87 -41 -2 2 16 13
39 24 49 24 48 24 48 17z m-1660 -40 c-46 -18 -64 -17 -25 0 17 8 37 14 45 14
8 0 -1 -7 -20 -14z m2593 8 c-7 -2 -19 -2 -25 0 -7 3 -2 5 12 5 14 0 19 -2 13
-5z m47 -13 c8 -5 11 -10 5 -10 -5 0 -17 5 -25 10 -8 5 -10 10 -5 10 6 0 17
-5 25 -10z m-1577 -12 c12 -7 45 -15 72 -18 46 -5 50 -7 53 -32 4 -33 -13 -36
-76 -14 -22 8 -43 12 -46 9 -10 -11 -55 38 -49 53 6 17 18 18 46 2z m502 1
c11 -16 -36 -50 -65 -47 -14 2 -33 -5 -43 -15 -22 -22 -37 -14 -37 19 0 18 5
24 23 25 12 0 38 6 57 13 45 17 57 18 65 5z m-198 -77 c18 -18 33 -36 33 -40
0 -27 -149 -47 -158 -21 -2 5 -10 9 -18 9 -23 0 -16 15 23 54 46 44 75 44 120
-2z m243 34 c0 -42 -62 -101 -74 -70 -9 23 -31 16 -55 -17 -16 -22 -26 -28
-34 -20 -17 17 9 64 32 56 11 -3 25 1 34 10 9 8 22 15 29 15 8 0 23 7 34 15
18 14 34 19 34 11z m-475 -52 c37 -17 47 -34 35 -54 -6 -10 -19 -11 -51 -4
-44 9 -58 27 -45 60 7 18 20 18 61 -2z m455 -66 c0 -5 -9 -12 -20 -15 -11 -3
-17 -9 -14 -14 3 -5 -4 -9 -15 -9 -12 0 -22 3 -22 8 -8 46 -7 47 32 44 22 -2
39 -9 39 -14z m-350 -77 c-1 -19 -40 48 -40 69 0 20 4 17 20 -19 11 -24 20
-46 20 -50z m160 54 c-6 -15 -13 -26 -16 -23 -2 3 0 18 6 33 6 15 13 26 16 23
2 -3 0 -18 -6 -33z m-70 21 c0 -2 -7 -9 -15 -16 -12 -10 -15 -10 -15 4 0 9 7
16 15 16 8 0 15 -2 15 -4z m-225 -16 c3 -5 20 -10 36 -10 26 0 30 -3 27 -22
-4 -29 -30 -34 -74 -13 -32 15 -42 33 -27 48 10 10 31 8 38 -3z m369 1 c17 -7
17 -8 2 -24 -24 -24 -36 -21 -36 8 0 26 4 28 34 16z m-434 -11 c0 -5 -5 -10
-11 -10 -5 0 -7 5 -4 10 3 6 8 10 11 10 2 0 4 -4 4 -10z m-1060 -51 c0 8 3 12
6 8 3 -3 1 -14 -5 -24 -6 -10 -11 -12 -11 -5 0 6 -10 12 -22 13 -22 0 -22 1
-3 8 12 5 23 4 27 -3 5 -7 8 -6 8 3z m1598 -22 c-11 -12 -15 -12 -25 2 -7 9
-12 11 -13 4 0 -6 7 -18 15 -26 11 -12 12 -16 2 -20 -7 -3 -18 6 -24 19 -12
26 -3 39 32 46 25 5 31 -7 13 -25z m1075 16 c-7 -2 -19 -2 -25 0 -7 3 -2 5 12
5 14 0 19 -2 13 -5z m-1446 -50 c2 -6 -10 -13 -27 -15 -29 -4 -29 -4 -13 14
17 19 34 20 40 1z m80 -5 c-3 -8 -6 -5 -6 6 -1 11 2 17 5 13 3 -3 4 -12 1 -19z
m156 4 c16 -18 15 -18 -13 -14 -29 4 -37 12 -23 25 10 11 19 8 36 -11z m-736
-18 c18 -17 24 -28 16 -31 -16 -6 -23 -5 -23 5 -1 4 -8 17 -16 30 -19 29 -11
28 23 -4z m310 20 c-3 -3 -12 -4 -19 -1 -8 3 -5 6 6 6 11 1 17 -2 13 -5z m901
-21 c-18 -41 -26 -49 -40 -34 -11 10 -7 17 17 37 17 13 31 24 32 24 2 0 -3
-12 -9 -27z m-1177 -132 c-23 -15 -40 -1 -39 31 l1 29 26 -26 c21 -21 23 -27
12 -34z m1165 17 c-12 -19 -66 -42 -66 -28 0 5 12 22 26 39 20 24 28 28 38 18
10 -9 10 -16 2 -29z m-621 12 c18 -20 17 -20 -16 -19 -19 1 -26 3 -16 6 11 3
16 11 13 19 -7 19 -2 18 19 -6z m104 -55 c-12 -12 -115 -11 -148 2 -18 7 -1
10 67 9 60 -1 87 -4 81 -11z m-631 -28 c6 -5 11 -21 11 -36 -1 -20 -2 -21 -6
-6 -2 11 -16 30 -31 43 -21 18 -23 21 -7 16 11 -4 26 -11 33 -17z m1108 1 c-9
-13 -19 -31 -23 -41 -7 -23 -23 -22 -23 2 0 11 12 29 26 40 34 27 41 27 20 -1z"/>
<path d="M2070 2678 c0 -19 2 -20 10 -8 13 19 13 30 0 30 -5 0 -10 -10 -10
-22z"/>
<path d="M2017 2683 c-4 -3 -7 -11 -7 -17 0 -6 5 -5 12 2 6 6 9 14 7 17 -3 3
-9 2 -12 -2z"/>
<path d="M1840 2606 c0 -8 4 -17 9 -20 5 -4 7 3 4 14 -6 23 -13 26 -13 6z"/>
<path d="M1930 2553 c0 -5 7 -18 15 -29 12 -16 14 -16 15 -3 0 9 -7 22 -15 29
-8 7 -15 8 -15 3z"/>
<path d="M2032 2538 c-14 -14 -16 -42 -2 -33 14 9 32 45 22 45 -4 0 -13 -5
-20 -12z"/>
<path d="M1798 2423 c7 -3 16 -2 19 1 4 3 -2 6 -13 5 -11 0 -14 -3 -6 -6z"/>
<path d="M1830 2396 c34 -13 34 -14 10 -18 -22 -5 -21 -5 7 -7 35 -1 54 16 32
30 -8 5 -30 8 -49 8 l-35 -1 35 -12z"/>
<path d="M2820 1382 c0 -5 12 -14 26 -20 14 -7 23 -8 19 -2 -9 15 -45 32 -45
22z"/>
<path d="M1160 1410 c-9 -6 -10 -10 -3 -10 6 0 15 5 18 10 8 12 4 12 -15 0z"/>
<path d="M1118 1374 c-37 -19 -35 -26 2 -13 17 6 30 15 30 20 0 11 1 11 -32
-7z"/>
<path d="M1378 1588 c-15 -15 -15 -18 -3 -18 9 0 12 -6 9 -17 -5 -17 -5 -17 6
0 6 10 10 25 8 35 -3 17 -4 17 -20 0z"/>
<path d="M1350 1550 c0 -5 5 -10 10 -10 6 0 10 5 10 10 0 6 -4 10 -10 10 -5 0
-10 -4 -10 -10z"/>
<path d="M1347 1513 c-10 -9 -9 -23 1 -23 5 0 9 7 9 15 0 17 -1 18 -10 8z"/>
<path d="M1317 1429 c8 -8 16 -8 30 0 16 9 14 10 -11 11 -22 0 -27 -3 -19 -11z"/>
<path d="M1322 1401 c4 -13 18 -16 19 -4 0 4 -5 9 -11 12 -7 2 -11 -2 -8 -8z"/>
<path d="M2590 1580 c0 -5 5 -10 11 -10 5 0 7 5 4 10 -3 6 -8 10 -11 10 -2 0
-4 -4 -4 -10z"/>
<path d="M2616 1512 c-3 -6 -1 -14 5 -17 5 -4 8 -14 4 -24 -4 -11 -3 -13 5 -5
7 7 7 19 2 34 -5 14 -11 19 -16 12z"/>
<path d="M2746 1407 c3 -10 9 -15 12 -12 3 3 0 11 -7 18 -10 9 -11 8 -5 -6z"/>
<path d="M643 1221 c-19 -16 -20 -20 -7 -25 8 -3 12 -2 9 3 -3 5 5 17 17 25
12 9 18 16 13 16 -6 -1 -20 -9 -32 -19z"/>
<path d="M685 1220 c-3 -6 1 -7 9 -4 18 7 21 14 7 14 -6 0 -13 -4 -16 -10z"/>
<path d="M3308 1229 c28 -18 31 -24 20 -38 -12 -14 -11 -15 6 -1 17 14 17 15
-10 37 -16 13 -33 23 -39 23 -5 0 5 -10 23 -21z"/>
<path d="M1203 1205 c0 -8 4 -12 9 -9 5 3 6 10 3 15 -9 13 -12 11 -12 -6z"/>
<path d="M575 1060 c-3 -5 -1 -10 4 -10 6 0 11 5 11 10 0 6 -2 10 -4 10 -3 0
-8 -4 -11 -10z"/>
<path d="M485 1030 c-10 -11 -13 -20 -7 -20 7 0 12 5 12 11 0 5 4 8 9 5 5 -3
11 1 15 9 8 21 -8 19 -29 -5z"/>
<path d="M3397 1059 c7 -7 15 -10 18 -7 3 3 -2 9 -12 12 -14 6 -15 5 -6 -5z"/>
<path d="M3442 1034 c10 -10 20 -15 24 -12 3 4 -5 12 -18 18 -22 12 -22 12 -6
-6z"/>
<path d="M999 1003 c-13 -15 -12 -15 9 -4 23 12 28 21 13 21 -5 0 -15 -7 -22
-17z"/>
</g>
</svg>
